<svg xmlns="http://www.w3.org/2000/svg" viewBox="0 0 490.56 513.92"><defs><style>.cls-1{fill:#fff;}.cls-2{fill:#1d1d1b;}</style></defs><title>Element 1</title><g id="Ebene_2" data-name="Ebene 2"><g id="Ebene_1-2" data-name="Ebene 1"><path class="cls-1" d="M490.16,265.42l-8-31.34a13.06,13.06,0,0,0-3.41-6L254.47,3.81a13,13,0,0,0-18.38,0L11.8,228.1a13.06,13.06,0,0,0-3.41,6l-8,31.34a13.08,13.08,0,0,0,3.4,12.41L236.09,510.11a13,13,0,0,0,18.38,0L486.76,277.83A13.06,13.06,0,0,0,490.16,265.42Zm-127.75,70.5a5.51,5.51,0,0,0-7.55,1.13l-64.47,83.87,39-100.21a5.5,5.5,0,0,0-10.08-4.38L272.06,415l14.66-92.47a5.5,5.5,0,0,0-10.78-2.16L256.28,401V278.55l152-28.9,48.29,21.62L324.93,402.89l38.9-59.48A5.49,5.49,0,0,0,362.41,335.92ZM345.27,131.37,457.86,244l1.09,4.29-42.19-18.9ZM203.84,322.51,218.5,415l-47.28-98.65a5.5,5.5,0,0,0-10.08,4.38l39,100.21L135.7,337.05a5.5,5.5,0,0,0-9,6.36l38.9,59.48L34,271.27l48.29-21.62,152,28.9V401l-19.66-80.62a5.5,5.5,0,0,0-10.78,2.16Zm12.39-224a5.48,5.48,0,0,0-4.93,3.07l-19.1,38.7a5.5,5.5,0,0,0,4.93,7.94h5.24a5.49,5.49,0,0,0,4.87-3c3.21-6.13,6.66-10.37,10.26-12.6s9-3.33,16.19-3.33h29.05c-9.52,11.24-15.38,18.39-17.81,21.74a212.75,212.75,0,0,0-19.63,31.73A197.25,197.25,0,0,0,211.09,221a99.61,99.61,0,0,0-2.93,23.15,5.5,5.5,0,0,0,5.5,5.55,5.6,5.6,0,0,0,1.76-.29l28.85-9.76a5.51,5.51,0,0,0,3.74-5A190.41,190.41,0,0,1,255.73,186,185.43,185.43,0,0,1,275,142.67c5.29-8.59,12.88-18.53,22.55-29.53a5.53,5.53,0,0,0,1.37-3.63v-4.32l91.53,125.45L245.28,258.25,100.1,230.64l145.18-199L294.05,98.5c-.21,0-.41,0-.62,0ZM31.61,248.25l1.1-4.29L145.3,131.37l-71.5,98Z"/><path class="cls-2" d="M484.83,266.78l-8-31.34a7.39,7.39,0,0,0-2-3.45L250.58,7.7a7.48,7.48,0,0,0-10.6,0L15.69,232a7.47,7.47,0,0,0-2,3.45l-8,31.34a7.49,7.49,0,0,0,2,7.16L240,506.22a7.48,7.48,0,0,0,10.6,0L482.87,273.94A7.49,7.49,0,0,0,484.83,266.78ZM245.28,23.61l3.44,3.44L400,234.42,245.28,263.85,90.53,234.42,241.84,27.05ZM239.78,274V446.74l-30.5-125.09,20.56,129.71L166.26,318.71l53,136.07L131.34,340.4l68,104L24.48,269.52l57.16-25.6ZM271.3,454.78l53-136.07L260.72,451.36l20.56-129.71-30.5,125.08V274l158.14-30.08,57.16,25.6L291.22,444.37l68-104ZM467.09,257.92l-53.91-24.15L299.09,77.42,462.81,241.14ZM191.47,77.41,77.39,233.77,23.47,257.92l4.28-16.78Z"/><path class="cls-2" d="M216.23,104h77.2v5.55q-14.88,16.93-23.1,30.28a189.84,189.84,0,0,0-19.87,44.66,195.14,195.14,0,0,0-8,50l-28.85,9.76a94,94,0,0,1,2.76-21.87,190.59,190.59,0,0,1,13.82-37.16,205.48,205.48,0,0,1,19.13-30.9q4.4-6.06,25.27-30.49H233.69q-12.37,0-19.09,4.15t-12.23,14.73h-5.24Z"/></g></g></svg>