<svg xmlns="http://www.w3.org/2000/svg" viewBox="0 0 479.57 502.92"><defs><style>.cls-1,.cls-2{fill:none;stroke:#1d1d1b;stroke-linejoin:round;}.cls-1{stroke-width:15px;}.cls-2{stroke-width:11px;}.cls-3{fill:#1d1d1b;}</style></defs><title>Element 1</title><g id="Ebene_2" data-name="Ebene 2"><g id="Ebene_1-2" data-name="Ebene 1"><polygon class="cls-1" points="15.49 231.79 239.78 7.5 464.07 231.79 472.07 263.13 239.78 495.42 7.5 263.13 15.49 231.79"/><polyline class="cls-2" points="239.78 495.42 239.78 263.95 75.47 232.7 239.78 7.5 404.1 232.7 472.07 263.13 404.1 232.7 239.78 263.95 75.47 232.7 7.5 263.13"/><polygon class="cls-3" points="233.67 499.76 125.84 334.9 245.9 491.08 233.67 499.76"/><polygon class="cls-3" points="232.9 498.4 160.77 313.21 246.67 492.44 232.9 498.4"/><polygon class="cls-3" points="232.43 496.9 203.78 316.15 247.14 493.94 232.43 496.9"/><polygon class="cls-3" points="233.67 491.08 353.73 334.9 245.9 499.76 233.67 491.08"/><polygon class="cls-3" points="232.9 492.44 318.8 313.21 246.67 498.4 232.9 492.44"/><polygon class="cls-3" points="232.43 493.94 275.79 316.15 247.14 496.9 232.43 493.94"/><path class="cls-3" d="M210.73,98.46h77.2V104q-14.88,16.93-23.1,30.28A189.63,189.63,0,0,0,245,179a194.71,194.71,0,0,0-8,50l-28.84,9.76a92.93,92.93,0,0,1,2.76-21.87,190.54,190.54,0,0,1,13.81-37.16,206.3,206.3,0,0,1,19.13-30.9q4.4-6.06,25.28-30.49H228.2q-12.39,0-19.09,4.15t-12.24,14.73h-5.23Z"/></g></g></svg>